<?xml version="1.0" encoding="UTF-8" ?>
<!DOCTYPE svg PUBLIC "-//W3C//DTD SVG 1.1//EN" "http://www.w3.org/Graphics/SVG/1.1/DTD/svg11.dtd">
<svg xmlns="http://www.w3.org/2000/svg"
    xmlns:xlink="http://www.w3.org/1999/xlink">
    <svg id="search" viewBox="0 0 24 24" fill="none">
        <path d="M14.9536 14.9458L21 21M17 10C17 13.866 13.866 17 10 17C6.13401 17 3 13.866 3 10C3 6.13401 6.13401 3 10 3C13.866 3 17 6.13401 17 10Z" stroke="currentColor" stroke-width="2" stroke-linecap="round" stroke-linejoin="round"/>
    </svg>

    <svg id="eye" fill="currentColor" viewBox="0 -2.96 15.929 15.929">
        <path id="Path_112" data-name="Path 112" d="M-3.768,6.232l-.416-.416A9.609,9.609,0,0,0-11,2.993a9.609,9.609,0,0,0-6.816,2.823l-.416.416a2.5,2.5,0,0,0,0,3.536l.416.416A9.609,9.609,0,0,0-11,13.007a9.609,9.609,0,0,0,6.816-2.823l.416-.416A2.5,2.5,0,0,0-3.768,6.232ZM-11,4a.5.5,0,0,1,.5.5A.5.5,0,0,1-11,5a2,2,0,0,0-2,2,.5.5,0,0,1-.5.5A.5.5,0,0,1-14,7,3,3,0,0,1-11,4Zm6.525,5.061-.416.416A8.581,8.581,0,0,1-11,12.007a8.581,8.581,0,0,1-6.109-2.53l-.416-.416A1.493,1.493,0,0,1-17.964,8a1.493,1.493,0,0,1,.439-1.061l.416-.416A8.624,8.624,0,0,1-14.183,4.6,3.964,3.964,0,0,0-15,7a4,4,0,0,0,4,4A4,4,0,0,0-7,7a3.964,3.964,0,0,0-.817-2.4A8.624,8.624,0,0,1-4.891,6.523l.416.416A1.493,1.493,0,0,1-4.036,8,1.493,1.493,0,0,1-4.475,9.061Z" transform="translate(18.965 -2.993)"/>
    </svg>

    <svg id="wind" viewBox="0 0 24 24" fill="none">
        <path d="M3 8H5M7 5.85714V5.5C7 4.11929 8.11929 3 9.5 3C10.8807 3 12 4.11929 12 5.5C12 6.88071 10.8807 8 9.5 8H8" stroke="currentColor" stroke-width="1.5" stroke-linecap="round"/>
        <path d="M4 14H5M15 17V17.5C15 19.433 16.567 21 18.5 21C20.433 21 22 19.433 22 17.5C22 15.567 20.433 14 18.5 14H9" stroke="currentColor" stroke-width="1.5" stroke-linecap="round"/>
        <path d="M2 11H8M15 8V7.5C15 5.567 16.567 4 18.5 4C20.433 4 22 5.567 22 7.5C22 9.433 20.433 11 18.5 11H12.25" stroke="currentColor" stroke-width="1.5" stroke-linecap="round"/>
    </svg>

    <svg id="humidity" viewBox="0 0 24 24" fill="none">
        <path d="M12 21.5C16.1012 21.5 19.5 18.4372 19.5 14.5714C19.5 12.1555 18.2672 9.71249 16.8732 7.70906C15.4698 5.69214 13.8515 4.04821 12.9778 3.21778C12.4263 2.69364 11.5737 2.69364 11.0222 3.21779C10.1485 4.04821 8.53016 5.69214 7.1268 7.70906C5.73282 9.71249 4.5 12.1555 4.5 14.5714C4.5 18.4372 7.8988 21.5 12 21.5Z" stroke="currentColor"/>
        <path d="M12 18C11.4747 18 10.9546 17.8965 10.4693 17.6955C9.98396 17.4945 9.54301 17.1999 9.17157 16.8284C8.80014 16.457 8.5055 16.016 8.30448 15.5307C8.10346 15.0454 8 14.5253 8 14" stroke="currentColor" stroke-linecap="round"/>
    </svg>

    <svg id="rain" viewBox="0 0 1024 1024">
        <path d="M700.6 188.2c-58.4 0-110.4 31.3-144.2 80.1-21.4-32.7-55.3-53.9-93.6-53.9-58 0-106.1 48.5-115.4 112h-44.9c-68.5 0-123.9 63.7-123.9 142.3 0 78.6 55.5 142.3 123.9 142.3h398.1c101.7 0 184.1-94.6 184.1-211.3 0-116.9-82.4-211.5-184.1-211.5z" fill="#FFFFFF" />
        <path d="M700.6 164.7c-54.6 0-106 24.6-144.2 68.2-25.3-27-58.3-42-93.6-42-61.6 0-114.6 46.1-131.9 112h-28.4c-79.8 0-144.7 74.4-144.7 165.8s64.9 165.7 144.7 165.7h398.1c113 0 204.9-105.3 204.9-234.8 0-129.6-91.9-234.9-204.9-234.9z m0 422.7H302.5c-56.9 0-103.2-53.3-103.2-118.8s46.3-118.8 103.2-118.8h44.9c10.2 0 18.8-8.3 20.5-19.6 7.8-53.5 47.8-92.4 94.9-92.4 30.5 0 58.5 16.2 76.9 44.4 3.9 5.9 9.9 9.4 16.4 9.5 6.1 0 12.6-3.2 16.6-9 31.3-45.2 77.8-71.1 127.8-71.1 90.1 0 163.4 84.3 163.4 187.9 0.1 103.6-73.2 187.9-163.3 187.9zM286.9 688.4L163.8 829.3c-8.1 9.2-8 24.1 0.2 33.2 4 4.5 9.3 6.8 14.6 6.8 5.4 0 10.7-2.3 14.8-7l123.1-140.9c8.1-9.2 8-24.1-0.2-33.2-8.2-9.2-21.4-9.1-29.4 0.2zM478.2 688.2c-8.2-9.1-21.3-9-29.4 0.2l-61.5 70.4c-8.1 9.2-8 24.1 0.2 33.2 4 4.5 9.3 6.8 14.6 6.8 5.4 0 10.7-2.3 14.8-7l61.5-70.4c8.1-9.3 8-24.1-0.2-33.2zM775.3 688.4l-61.5 70.4c-8.1 9.2-8 24.1 0.2 33.2 4 4.5 9.3 6.8 14.6 6.8 5.4 0 10.7-2.3 14.8-7l61.5-70.4c8.1-9.2 8-24.1-0.2-33.2-8.2-9.2-21.3-9.1-29.4 0.2zM613.5 688.4L490.4 829.3c-8.1 9.2-8 24.1 0.2 33.2 4 4.5 9.3 6.8 14.6 6.8 5.4 0 10.7-2.3 14.8-7l123-140.9c8.1-9.2 8-24.1-0.2-33.2-8.1-9.2-21.3-9.1-29.3 0.2z" fill="currentColor" />
    </svg>

    <svg id="snow" viewBox="0 0 16 16" fill="currentColor">
        <path d="M8 7.5a.5.5 0 1 0 0 1 .5.5 0 0 0 0-1z"/>
        <path d="M8 16a.5.5 0 0 1-.5-.5v-1.293l-.646.647a.5.5 0 0 1-.707-.708L7.5 12.793v-1.51l-2.053-1.232-1.348.778-.495 1.85a.5.5 0 1 1-.966-.26l.237-.882-1.12.646a.5.5 0 0 1-.5-.866l1.12-.646-.883-.237a.5.5 0 1 1 .258-.966l1.85.495L5 9.155v-2.31l-1.4-.808-1.85.495a.5.5 0 1 1-.259-.966l.884-.237-1.12-.646a.5.5 0 0 1 .5-.866l1.12.646-.237-.883a.5.5 0 1 1 .966-.258l.495 1.849 1.348.778L7.5 4.717v-1.51L6.147 1.854a.5.5 0 1 1 .707-.708l.646.647V.5a.5.5 0 0 1 1 0v1.293l.647-.647a.5.5 0 1 1 .707.708L8.5 3.207v1.51l2.053 1.232 1.348-.778.495-1.85a.5.5 0 1 1 .966.26l-.236.882 1.12-.646a.5.5 0 0 1 .5.866l-1.12.646.883.237a.5.5 0 1 1-.26.966l-1.848-.495-1.4.808v2.31l1.4.808 1.849-.495a.5.5 0 1 1 .259.966l-.883.237 1.12.646a.5.5 0 0 1-.5.866l-1.12-.646.236.883a.5.5 0 1 1-.966.258l-.495-1.849-1.348-.778L8.5 11.283v1.51l1.354 1.353a.5.5 0 0 1-.707.708l-.647-.647V15.5a.5.5 0 0 1-.5.5zm2-6.783V6.783l-2-1.2-2 1.2v2.434l2 1.2 2-1.2z"/>
    </svg>

    <svg id="uv" fill="currentColor" viewBox="0 0 32 32">
        <path d="M13,30H9a2.0027,2.0027,0,0,1-2-2V20H9v8h4V20h2v8A2.0027,2.0027,0,0,1,13,30Z" transform="translate(0 0)"/>
        <polygon points="25 20 23.25 20 21 29.031 18.792 20 17 20 19.5 30 22.5 30 25 20"/>
        <rect x="15" y="2" width="2" height="5"/>
        <rect x="21.6675" y="6.8536" width="4.958" height="1.9998" transform="translate(1.5191 19.3744) rotate(-45)"/>
        <rect x="25" y="15" width="5" height="2"/>
        <rect x="2" y="15" width="5" height="2"/>
        <rect x="6.8536" y="5.3745" width="1.9998" height="4.958" transform="translate(-3.253 7.8535) rotate(-45)"/>
        <path d="M22,17H20V16a4,4,0,0,0-8,0v1H10V16a6,6,0,0,1,12,0Z" transform="translate(0 0)"/>
        <rect id="_Transparent_Rectangle_" data-name="&lt;Transparent Rectangle&gt;" fill="none" width="32" height="32"/>
    </svg>

    <svg fill="currentColor" id="close" viewBox="0 0 572.098 572.098">
        <g>
            <g>
                <path d="M99.187,398.999l44.333-44.332c-24.89-15.037-47.503-33.984-66.763-56.379c29.187-33.941,66.053-60.018,106.947-76.426
			c-6.279,14.002-9.853,29.486-9.853,45.827c0,16.597,3.696,32.3,10.165,46.476l35.802-35.797
			c-5.698-5.594-9.248-13.36-9.248-21.977c0-17.02,13.801-30.82,30.82-30.82c8.611,0,16.383,3.55,21.971,9.248l32.534-32.534
			l36.635-36.628l18.366-18.373c-21.206-4.186-42.896-6.469-64.848-6.469c-107.663,0-209.732,52.155-273.038,139.518L0,298.288
			l13.011,17.957C36.83,349.116,66.151,376.999,99.187,398.999z"/>
                <path d="M459.208,188.998l-44.854,44.854c30.539,16.071,58.115,37.846,80.986,64.437
			c-52.167,60.662-128.826,96.273-209.292,96.273c-10.3,0-20.533-0.6-30.661-1.744l-52.375,52.375
			c26.903,6.887,54.762,10.57,83.036,10.57c107.663,0,209.738-52.154,273.038-139.523l13.011-17.957l-13.011-17.956
			C532.023,242.995,497.844,212.15,459.208,188.998z"/>
                <path d="M286.049,379.888c61.965,0,112.198-50.234,112.198-112.199c0-5.588-0.545-11.035-1.335-16.402L269.647,378.56
			C275.015,379.349,280.461,379.888,286.049,379.888z"/>
                <path d="M248.815,373.431L391.79,230.455l4.994-4.994l45.796-45.796l86.764-86.77c13.543-13.543,13.543-35.502,0-49.046
			c-6.77-6.769-15.649-10.159-24.523-10.159s-17.754,3.384-24.522,10.159l-108.33,108.336l-22.772,22.772l-29.248,29.248
			l-48.14,48.14l-34.456,34.456l-44.027,44.027l-33.115,33.115l-45.056,45.055l-70.208,70.203
			c-13.543,13.543-13.543,35.502,0,49.045c6.769,6.77,15.649,10.16,24.523,10.16s17.754-3.385,24.523-10.16l88.899-88.898
			l50.086-50.086L248.815,373.431z"/>
            </g>
        </g>
    </svg>
</svg>